<svg xmlns="http://www.w3.org/2000/svg" xmlns:xlink="http://www.w3.org/1999/xlink" width="800" zoomAndPan="magnify" viewBox="0 0 600 599.999999" height="800" preserveAspectRatio="xMidYMid meet" version="1.0"><defs><clipPath id="2ed84f6bc8"><path d="M 67.382812 286 L 533.25 286 L 533.25 309 L 67.382812 309 Z M 67.382812 286 " clip-rule="nonzero"/></clipPath></defs><path fill="#1a1a25" d="M 311.542969 66.210938 L 289.050781 66.210938 L 289.050781 528.945312 L 311.542969 528.945312 Z M 311.542969 66.210938 " fill-opacity="1" fill-rule="nonzero"/><path fill="#1a1a25" d="M 311.542969 66.210938 L 289.050781 66.210938 L 289.050781 528.945312 L 311.542969 528.945312 Z M 311.542969 66.210938 " fill-opacity="0.2" fill-rule="nonzero"/><g clip-path="url(#2ed84f6bc8)"><path fill="#1a1a25" d="M 533.25 286.394531 L 67.382812 286.394531 L 67.382812 308.816406 L 533.25 308.816406 Z M 533.25 286.394531 " fill-opacity="1" fill-rule="nonzero"/><path fill="#1a1a25" d="M 533.25 286.394531 L 67.382812 286.394531 L 67.382812 308.816406 L 533.25 308.816406 Z M 533.25 286.394531 " fill-opacity="0.2" fill-rule="nonzero"/></g><path fill="#1a1a25" d="M 143.503906 126.085938 L 127.585938 141.90625 L 456.960938 469.101562 L 472.949219 453.269531 Z M 143.503906 126.085938 " fill-opacity="1" fill-rule="nonzero"/><path fill="#1a1a25" d="M 143.503906 126.085938 L 127.585938 141.90625 L 456.960938 469.101562 L 472.949219 453.269531 Z M 143.503906 126.085938 " fill-opacity="0.2" fill-rule="nonzero"/><path fill="#1a1a25" d="M 456.960938 126.085938 L 127.585938 453.28125 L 143.503906 469.042969 L 472.949219 141.894531 Z M 456.960938 126.085938 " fill-opacity="1" fill-rule="nonzero"/><path fill="#1a1a25" d="M 456.960938 126.085938 L 127.585938 453.28125 L 143.503906 469.042969 L 472.949219 141.894531 Z M 456.960938 126.085938 " fill-opacity="0.2" fill-rule="nonzero"/><path fill="#1a1a25" d="M 88.855469 200.03125 L 80.351562 220.742188 L 511.804688 395.3125 L 520.3125 374.636719 Z M 88.855469 200.03125 " fill-opacity="1" fill-rule="nonzero"/><path fill="#1a1a25" d="M 88.855469 200.03125 L 80.351562 220.742188 L 511.804688 395.3125 L 520.3125 374.636719 Z M 88.855469 200.03125 " fill-opacity="0.2" fill-rule="nonzero"/><path fill="#1a1a25" d="M 377.820312 79.210938 L 202.039062 507.742188 L 222.910156 516.179688 L 398.691406 87.636719 Z M 377.820312 79.210938 " fill-opacity="1" fill-rule="nonzero"/><path fill="#1a1a25" d="M 377.820312 79.210938 L 202.039062 507.742188 L 222.910156 516.179688 L 398.691406 87.636719 Z M 377.820312 79.210938 " fill-opacity="0.2" fill-rule="nonzero"/><path fill="#1a1a25" d="M 512.34375 200.792969 L 80.15625 373.554688 L 88.5625 394.335938 L 520.769531 221.570312 Z M 512.34375 200.792969 " fill-opacity="1" fill-rule="nonzero"/><path fill="#1a1a25" d="M 512.34375 200.792969 L 80.15625 373.554688 L 88.5625 394.335938 L 520.769531 221.570312 Z M 512.34375 200.792969 " fill-opacity="0.2" fill-rule="nonzero"/><path fill="#1a1a25" d="M 223.632812 78.9375 L 202.761719 87.277344 L 376.628906 516.5625 L 397.5 508.230469 Z M 223.632812 78.9375 " fill-opacity="1" fill-rule="nonzero"/><path fill="#1a1a25" d="M 223.632812 78.9375 L 202.761719 87.277344 L 376.628906 516.5625 L 397.5 508.230469 Z M 223.632812 78.9375 " fill-opacity="0.2" fill-rule="nonzero"/></svg>