<svg xmlns="http://www.w3.org/2000/svg" xmlns:xlink="http://www.w3.org/1999/xlink" width="512" zoomAndPan="magnify" viewBox="0 0 384 383.999986" height="512" preserveAspectRatio="xMidYMid meet" version="1.2"><defs><clipPath id="2e6a35a171"><path d="M 192 0 C 85.960938 0 0 85.960938 0 192 C 0 298.039062 85.960938 384 192 384 C 298.039062 384 384 298.039062 384 192 C 384 85.960938 298.039062 0 192 0 Z M 192 0 "/></clipPath><clipPath id="d2f63b1993"><path d="M 185 60.144531 L 198.949219 60.144531 L 198.949219 321 L 185 321 Z M 185 60.144531 "/></clipPath><clipPath id="2325ecc61e"><path d="M 61.070312 184 L 323.121094 184 L 323.121094 197 L 61.070312 197 Z M 61.070312 184 "/></clipPath></defs><g id="2d91505ba2"><g clip-rule="nonzero" clip-path="url(#2e6a35a171)"><rect x="0" width="384" y="0" height="383.999986" style="fill:#000000;fill-opacity:1;stroke:none;"/></g><g clip-rule="nonzero" clip-path="url(#d2f63b1993)"><path style=" stroke:none;fill-rule:nonzero;fill:#ffffff;fill-opacity:1;" d="M 198.410156 60.410156 L 185.757812 60.410156 L 185.757812 320.699219 L 198.410156 320.699219 Z M 198.410156 60.410156 "/><path style=" stroke:none;fill-rule:nonzero;fill:#ffffff;fill-opacity:0.2;" d="M 198.410156 60.410156 L 185.757812 60.410156 L 185.757812 320.699219 L 198.410156 320.699219 Z M 198.410156 60.410156 "/></g><g clip-rule="nonzero" clip-path="url(#2325ecc61e)"><path style=" stroke:none;fill-rule:nonzero;fill:#ffffff;fill-opacity:1;" d="M 323.121094 184.265625 L 61.070312 184.265625 L 61.070312 196.875 L 323.121094 196.875 Z M 323.121094 184.265625 "/><path style=" stroke:none;fill-rule:nonzero;fill:#ffffff;fill-opacity:0.2;" d="M 323.121094 184.265625 L 61.070312 184.265625 L 61.070312 196.875 L 323.121094 196.875 Z M 323.121094 184.265625 "/></g><path style=" stroke:none;fill-rule:nonzero;fill:#ffffff;fill-opacity:1;" d="M 103.886719 94.089844 L 94.933594 102.988281 L 280.207031 287.035156 L 289.199219 278.132812 Z M 103.886719 94.089844 "/><path style=" stroke:none;fill-rule:nonzero;fill:#ffffff;fill-opacity:0.2;" d="M 103.886719 94.089844 L 94.933594 102.988281 L 280.207031 287.035156 L 289.199219 278.132812 Z M 103.886719 94.089844 "/><path style=" stroke:none;fill-rule:nonzero;fill:#ffffff;fill-opacity:1;" d="M 280.207031 94.089844 L 94.933594 278.136719 L 103.886719 287.003906 L 289.199219 102.980469 Z M 280.207031 94.089844 "/><path style=" stroke:none;fill-rule:nonzero;fill:#ffffff;fill-opacity:0.2;" d="M 280.207031 94.089844 L 94.933594 278.136719 L 103.886719 287.003906 L 289.199219 102.980469 Z M 280.207031 94.089844 "/><path style=" stroke:none;fill-rule:nonzero;fill:#ffffff;fill-opacity:1;" d="M 73.148438 135.683594 L 68.363281 147.332031 L 311.058594 245.53125 L 315.84375 233.902344 Z M 73.148438 135.683594 "/><path style=" stroke:none;fill-rule:nonzero;fill:#ffffff;fill-opacity:0.2;" d="M 73.148438 135.683594 L 68.363281 147.332031 L 311.058594 245.53125 L 315.84375 233.902344 Z M 73.148438 135.683594 "/><path style=" stroke:none;fill-rule:nonzero;fill:#ffffff;fill-opacity:1;" d="M 235.691406 67.722656 L 136.816406 308.773438 L 148.554688 313.519531 L 247.429688 72.460938 Z M 235.691406 67.722656 "/><path style=" stroke:none;fill-rule:nonzero;fill:#ffffff;fill-opacity:0.2;" d="M 235.691406 67.722656 L 136.816406 308.773438 L 148.554688 313.519531 L 247.429688 72.460938 Z M 235.691406 67.722656 "/><path style=" stroke:none;fill-rule:nonzero;fill:#ffffff;fill-opacity:1;" d="M 311.359375 136.113281 L 68.253906 233.289062 L 72.984375 244.980469 L 316.101562 147.800781 Z M 311.359375 136.113281 "/><path style=" stroke:none;fill-rule:nonzero;fill:#ffffff;fill-opacity:0.2;" d="M 311.359375 136.113281 L 68.253906 233.289062 L 72.984375 244.980469 L 316.101562 147.800781 Z M 311.359375 136.113281 "/><path style=" stroke:none;fill-rule:nonzero;fill:#ffffff;fill-opacity:1;" d="M 148.960938 67.566406 L 137.222656 72.257812 L 235.019531 313.734375 L 246.761719 309.046875 Z M 148.960938 67.566406 "/><path style=" stroke:none;fill-rule:nonzero;fill:#ffffff;fill-opacity:0.2;" d="M 148.960938 67.566406 L 137.222656 72.257812 L 235.019531 313.734375 L 246.761719 309.046875 Z M 148.960938 67.566406 "/></g></svg>