<svg xmlns="http://www.w3.org/2000/svg" viewBox="0 0 800 400">
    <!-- Background -->
    <rect width="800" height="400" fill="#ffffff"/>
    
    <!-- Title -->
    <text x="400" y="40" text-anchor="middle" font-family="Arial, sans-serif" font-size="20" font-weight="bold" fill="#333">
        Platform Effectiveness in Search Visibility 2024-2025
    </text>
    
    <!-- Grid lines -->
    <g stroke="#e0e0e0" stroke-width="1">
        <line x1="200" y1="80" x2="200" y2="350"/>
        <line x1="300" y1="80" x2="300" y2="350"/>
        <line x1="400" y1="80" x2="400" y2="350"/>
        <line x1="500" y1="80" x2="500" y2="350"/>
        <line x1="600" y1="80" x2="600" y2="350"/>
        <line x1="700" y1="80" x2="700" y2="350"/>
    </g>
    
    <!-- X-axis labels -->
    <g font-family="Arial, sans-serif" font-size="12" fill="#666">
        <text x="200" y="370" text-anchor="middle">10%</text>
        <text x="300" y="370" text-anchor="middle">20%</text>
        <text x="400" y="370" text-anchor="middle">30%</text>
        <text x="500" y="370" text-anchor="middle">40%</text>
        <text x="600" y="370" text-anchor="middle">50%</text>
        <text x="700" y="370" text-anchor="middle">60%</text>
    </g>
    
    <!-- Bars and labels -->
    <g>
        <!-- Google Search -->
        <rect x="200" y="90" width="420" height="30" fill="#4285f4"/>
        <text x="190" y="110" text-anchor="end" font-family="Arial, sans-serif" font-size="14" fill="#333">Google Search</text>
        <text x="630" y="110" font-family="Arial, sans-serif" font-size="14" fill="#fff">52%</text>
        
        <!-- TikTok Search -->
        <rect x="200" y="130" width="320" height="30" fill="#ff0050"/>
        <text x="190" y="150" text-anchor="end" font-family="Arial, sans-serif" font-size="14" fill="#333">TikTok Search</text>
        <text x="530" y="150" font-family="Arial, sans-serif" font-size="14" fill="#fff">42%</text>
        
        <!-- Instagram Search -->
        <rect x="200" y="170" width="280" height="30" fill="#833AB4"/>
        <text x="190" y="190" text-anchor="end" font-family="Arial, sans-serif" font-size="14" fill="#333">Instagram Search</text>
        <text x="490" y="190" font-family="Arial, sans-serif" font-size="14" fill="#fff">38%</text>
        
        <!-- YouTube Search -->
        <rect x="200" y="210" width="240" height="30" fill="#FF0000"/>
        <text x="190" y="230" text-anchor="end" font-family="Arial, sans-serif" font-size="14" fill="#333">YouTube Search</text>
        <text x="450" y="230" font-family="Arial, sans-serif" font-size="14" fill="#fff">34%</text>
        
        <!-- Voice Search -->
        <rect x="200" y="250" width="200" height="30" fill="#34A853"/>
        <text x="190" y="270" text-anchor="end" font-family="Arial, sans-serif" font-size="14" fill="#333">Voice Search</text>
        <text x="410" y="270" font-family="Arial, sans-serif" font-size="14" fill="#fff">30%</text>
        
        <!-- Amazon Search -->
        <rect x="200" y="290" width="160" height="30" fill="#FF9900"/>
        <text x="190" y="310" text-anchor="end" font-family="Arial, sans-serif" font-size="14" fill="#333">Amazon Search</text>
        <text x="370" y="310" font-family="Arial, sans-serif" font-size="14" fill="#fff">26%</text>
    </g>
    
    <!-- Source -->
    <text x="400" y="395" text-anchor="middle" font-family="Arial, sans-serif" font-size="12" fill="#666">
        Source: Digital Marketing Analytics 2024-2025
    </text>
</svg>