<svg xmlns="http://www.w3.org/2000/svg" xmlns:xlink="http://www.w3.org/1999/xlink" width="500" zoomAndPan="magnify" viewBox="0 0 375 374.999991" height="500" preserveAspectRatio="xMidYMid meet" version="1.0"><defs><clipPath id="5eaa2fae81"><path d="M 178 4.484375 L 197 4.484375 L 197 367 L 178 367 Z M 178 4.484375 " clip-rule="nonzero"/></clipPath><clipPath id="2811fea88d"><path d="M 5.769531 176 L 369.726562 176 L 369.726562 195 L 5.769531 195 Z M 5.769531 176 " clip-rule="nonzero"/></clipPath></defs><g clip-path="url(#5eaa2fae81)"><path fill="#0a0a0a" d="M 196.519531 4.851562 L 178.949219 4.851562 L 178.949219 366.363281 L 196.519531 366.363281 Z M 196.519531 4.851562 " fill-opacity="1" fill-rule="nonzero"/><path fill="#0a0a0a" d="M 196.519531 4.851562 L 178.949219 4.851562 L 178.949219 366.363281 L 196.519531 366.363281 Z M 196.519531 4.851562 " fill-opacity="0.2" fill-rule="nonzero"/></g><g clip-path="url(#2811fea88d)"><path fill="#0a0a0a" d="M 369.726562 176.871094 L 5.769531 176.871094 L 5.769531 194.390625 L 369.726562 194.390625 Z M 369.726562 176.871094 " fill-opacity="1" fill-rule="nonzero"/><path fill="#0a0a0a" d="M 369.726562 176.871094 L 5.769531 176.871094 L 5.769531 194.390625 L 369.726562 194.390625 Z M 369.726562 176.871094 " fill-opacity="0.2" fill-rule="nonzero"/></g><path fill="#0a0a0a" d="M 65.238281 51.628906 L 52.804688 63.988281 L 310.128906 319.609375 L 322.617188 307.242188 Z M 65.238281 51.628906 " fill-opacity="1" fill-rule="nonzero"/><path fill="#0a0a0a" d="M 65.238281 51.628906 L 52.804688 63.988281 L 310.128906 319.609375 L 322.617188 307.242188 Z M 65.238281 51.628906 " fill-opacity="0.2" fill-rule="nonzero"/><path fill="#0a0a0a" d="M 310.128906 51.628906 L 52.804688 307.25 L 65.238281 319.566406 L 322.617188 63.980469 Z M 310.128906 51.628906 " fill-opacity="1" fill-rule="nonzero"/><path fill="#0a0a0a" d="M 310.128906 51.628906 L 52.804688 307.25 L 65.238281 319.566406 L 322.617188 63.980469 Z M 310.128906 51.628906 " fill-opacity="0.2" fill-rule="nonzero"/><path fill="#0a0a0a" d="M 22.542969 109.398438 L 15.898438 125.578125 L 352.972656 261.964844 L 359.621094 245.8125 Z M 22.542969 109.398438 " fill-opacity="1" fill-rule="nonzero"/><path fill="#0a0a0a" d="M 22.542969 109.398438 L 15.898438 125.578125 L 352.972656 261.964844 L 359.621094 245.8125 Z M 22.542969 109.398438 " fill-opacity="0.2" fill-rule="nonzero"/><path fill="#0a0a0a" d="M 248.296875 15.007812 L 110.96875 349.800781 L 127.273438 356.390625 L 264.601562 21.589844 Z M 248.296875 15.007812 " fill-opacity="1" fill-rule="nonzero"/><path fill="#0a0a0a" d="M 248.296875 15.007812 L 110.96875 349.800781 L 127.273438 356.390625 L 264.601562 21.589844 Z M 248.296875 15.007812 " fill-opacity="0.2" fill-rule="nonzero"/><path fill="#0a0a0a" d="M 353.394531 109.992188 L 15.746094 244.964844 L 22.316406 261.199219 L 359.976562 126.226562 Z M 353.394531 109.992188 " fill-opacity="1" fill-rule="nonzero"/><path fill="#0a0a0a" d="M 353.394531 109.992188 L 15.746094 244.964844 L 22.316406 261.199219 L 359.976562 126.226562 Z M 353.394531 109.992188 " fill-opacity="0.2" fill-rule="nonzero"/><path fill="#0a0a0a" d="M 127.839844 14.792969 L 111.535156 21.308594 L 247.367188 356.691406 L 263.671875 350.179688 Z M 127.839844 14.792969 " fill-opacity="1" fill-rule="nonzero"/><path fill="#0a0a0a" d="M 127.839844 14.792969 L 111.535156 21.308594 L 247.367188 356.691406 L 263.671875 350.179688 Z M 127.839844 14.792969 " fill-opacity="0.2" fill-rule="nonzero"/></svg>