<svg xmlns="http://www.w3.org/2000/svg" viewBox="0 0 800 500">
  <!-- Background -->
  <rect width="800" height="500" fill="rgb(242, 241, 236)"/>
  
  <!-- Title and subtitle -->
  <text x="60" y="60" font-family="sans-serif" font-size="24" font-weight="600" fill="rgb(23, 23, 23)">
    Recommended Traffic Diversification
  </text>
  <text x="60" y="90" font-family="sans-serif" font-size="16" fill="rgb(23, 23, 23)" opacity="0.7">
    Strategic approaches to reduce dependency on Google organic traffic
  </text>
  
  <!-- Centered Pie Chart -->
  <g transform="translate(400, 250)">
    <!-- Pie Segments -->
    <g>
      <path d="M 0 0 L 120 0 A 120 120 0 0 1 93.4 75.5 Z" fill="rgb(234, 233, 225)" stroke="black"/>
      <path d="M 0 0 L 93.4 75.5 A 120 120 0 0 1 0 120 Z" fill="rgb(240, 239, 234)" stroke="black"/>
      <path d="M 0 0 L 0 120 A 120 120 0 0 1 -62.3 102.6 Z" fill="rgb(234, 233, 225)" stroke="black"/>
      <path d="M 0 0 L -62.3 102.6 A 120 120 0 0 1 -106.1 56.3 Z" fill="rgb(240, 239, 234)" stroke="black"/>
      <path d="M 0 0 L -106.1 56.3 A 120 120 0 0 1 -106.1 -56.3 Z" fill="rgb(234, 233, 225)" stroke="black"/>
      <path d="M 0 0 L -106.1 -56.3 A 120 120 0 0 1 -62.3 -102.6 Z" fill="rgb(240, 239, 234)" stroke="black"/>
      <path d="M 0 0 L -62.3 -102.6 A 120 120 0 0 1 0 -120 Z" fill="rgb(234, 233, 225)" stroke="black"/>
      <path d="M 0 0 L 0 -120 A 120 120 0 0 1 93.4 -75.5 Z" fill="rgb(240, 239, 234)" stroke="black"/>
      <path d="M 0 0 L 93.4 -75.5 A 120 120 0 0 1 120 0 Z" fill="rgb(234, 233, 225)" stroke="black"/>
    </g>
    
    <!-- Center Circle -->
    <circle cx="0" cy="0" r="40" fill="rgb(234, 233, 225)" stroke="black"/>
    <text x="0" y="-5" font-family="sans-serif" font-size="14" font-weight="600" fill="black" text-anchor="middle">Diversified</text>
    <text x="0" y="15" font-family="sans-serif" font-size="14" font-weight="600" fill="black" text-anchor="middle">Strategy</text>
  </g>

  <!-- Labels with Lines -->
  <g font-family="sans-serif" font-size="14" fill="black">
    <text x="550" y="140">Brand</text>
    <line x1="540" y1="140" x2="460" y2="160" stroke="lightgrey"/>
    
    <text x="570" y="220">Content</text>
    <line x1="560" y1="217" x2="480" y2="230" stroke="lightgrey"/>
    
    <text x="500" y="350">Email</text>
    <line x1="490" y1="340" x2="430" y2="310" stroke="lightgrey"/>
    
    <text x="340" y="410">Social</text>
    <line x1="360" y1="390" x2="370" y2="350" stroke="lightgrey"/>
    
    <text x="150" y="390">Exclusive</text>
    <line x1="190" y1="370" x2="270" y2="330" stroke="lightgrey"/>
    
    <text x="80" y="300">Direct</text>
    <line x1="130" y1="290" x2="220" y2="270" stroke="lightgrey"/>
    
    <text x="80" y="190">Affiliates</text>
    <line x1="150" y1="190" x2="250" y2="210" stroke="lightgrey"/>
    
    <text x="250" y="130">SEO</text>
    <line x1="280" y1="140" x2="350" y2="200" stroke="lightgrey"/>
    
    <text x="400" y="110">Events</text>
    <line x1="410" y1="110" x2="420" y2="160" stroke="lightgrey"/>
  </g>
  
  <!-- Enhanced Legend -->
  <text x="60" y="460" font-family="sans-serif" font-size="12" fill="rgb(23, 23, 23)" opacity="0.7">
    Source: Expert recommendations for publishers based on industry analysis
  </text>
</svg>
