<svg xmlns="http://www.w3.org/2000/svg" viewBox="0 0 640 360" font-family="system-ui, -apple-system, 'Segoe UI', Roboto, sans-serif">
  <rect width="640" height="360" fill="#ffffff"/>

  <!-- Title -->
  <text x="48" y="36" font-size="11" font-weight="500" letter-spacing="0.05em" fill="#737373">INDUSTRY EXPOSURE</text>
  <text x="48" y="58" font-size="15" font-weight="500" fill="#171717">Percentage of queries triggering AI Overviews by sector</text>

  <!-- Chart area -->
  <g transform="translate(48, 84)">
    <!-- Grid lines -->
    <line x1="180" y1="0" x2="544" y2="0" stroke="#e5e5e5" stroke-width="0.5"/>
    <line x1="180" y1="56" x2="544" y2="56" stroke="#e5e5e5" stroke-width="0.5"/>
    <line x1="180" y1="112" x2="544" y2="112" stroke="#e5e5e5" stroke-width="0.5"/>
    <line x1="180" y1="168" x2="544" y2="168" stroke="#e5e5e5" stroke-width="0.5"/>

    <!-- Background track -->
    <rect x="180" y="10" width="364" height="28" rx="2" fill="#f5f5f5"/>
    <rect x="180" y="66" width="364" height="28" rx="2" fill="#f5f5f5"/>
    <rect x="180" y="122" width="364" height="28" rx="2" fill="#f5f5f5"/>
    <rect x="180" y="178" width="364" height="28" rx="2" fill="#f5f5f5"/>

    <!-- Healthcare & Education: 87% -->
    <text x="174" y="30" font-size="12" fill="#171717" text-anchor="end" font-weight="500">Healthcare &amp; Edu</text>
    <rect x="180" y="10" width="317" height="28" rx="2" fill="#171717"/>
    <text x="505" y="29" font-size="13" font-weight="600" fill="#171717">87%</text>

    <!-- B2B Tech: 70% -->
    <text x="174" y="86" font-size="12" fill="#171717" text-anchor="end" font-weight="500">B2B Tech</text>
    <rect x="180" y="66" width="255" height="28" rx="2" fill="#171717" fill-opacity="0.7"/>
    <text x="443" y="85" font-size="13" font-weight="600" fill="#171717">70%</text>

    <!-- Insurance: 63% -->
    <text x="174" y="142" font-size="12" fill="#171717" text-anchor="end" font-weight="500">Insurance</text>
    <rect x="180" y="122" width="230" height="28" rx="2" fill="#171717" fill-opacity="0.5"/>
    <text x="418" y="141" font-size="13" font-weight="600" fill="#171717">63%</text>

    <!-- E-commerce: 4% -->
    <text x="174" y="198" font-size="12" fill="#171717" text-anchor="end" font-weight="500">E-commerce</text>
    <rect x="180" y="178" width="15" height="28" rx="2" fill="#171717" fill-opacity="0.2"/>
    <text x="201" y="197" font-size="13" font-weight="600" fill="#171717">4%</text>

    <!-- Annotation -->
    <g transform="translate(180, 230)">
      <line x1="0" y1="0" x2="364" y2="0" stroke="#e5e5e5" stroke-width="1"/>
      <text x="0" y="22" font-size="11" fill="#737373">E-commerce exposure dropped from 29% to 4% as Google</text>
      <text x="0" y="38" font-size="11" fill="#737373">pulled back AI Overviews on commercial intent queries.</text>
    </g>
  </g>

  <!-- Source -->
  <text x="592" y="348" font-size="9" fill="#a3a3a3" text-anchor="end">Source: BrightEdge, 2025</text>
</svg>
